<?xml version="1.0" encoding="iso-8859-1"?>
<!-- Generator: Adobe Illustrator 19.0.0, SVG Export Plug-In . SVG Version: 6.00 Build 0)  -->
<svg version="1.1" id="Capa_1" xmlns="http://www.w3.org/2000/svg" xmlns:xlink="http://www.w3.org/1999/xlink" x="0px" y="0px"
	 viewBox="0 0 512 512" style="enable-background:new 0 0 512 512;" xml:space="preserve">
<g>
	<g>
		<g>
			<path d="M448,192H64c-35.285,0-64,28.715-64,64s28.715,64,64,64h384c35.285,0,64-28.715,64-64S483.285,192,448,192z"/>
			<path d="M256,170.667c47.061,0,85.333-38.272,85.333-85.333S303.061,0,256,0s-85.333,38.272-85.333,85.333
				S208.939,170.667,256,170.667z"/>
			<path d="M256,341.333c-47.061,0-85.333,38.272-85.333,85.333S208.939,512,256,512s85.333-38.272,85.333-85.333
				S303.061,341.333,256,341.333z"/>
		</g>
	</g>
</g>
<g>
</g>
<g>
</g>
<g>
</g>
<g>
</g>
<g>
</g>
<g>
</g>
<g>
</g>
<g>
</g>
<g>
</g>
<g>
</g>
<g>
</g>
<g>
</g>
<g>
</g>
<g>
</g>
<g>
</g>
</svg>
