<?xml version="1.0" encoding="UTF-8"?>
<svg width="45px" height="45px" viewBox="0 0 45 38" version="1.1" xmlns="http://www.w3.org/2000/svg" xmlns:xlink="http://www.w3.org/1999/xlink"><title>shop - inactive</title><desc>Created with Sketch.</desc><g id="shop---inactive-" stroke="none" stroke-width="1" fill="none" fill-rule="evenodd"><path d="M1.91428571,11.3685096 L43.0857143,11.3685096 L43.0857143,34.4095096 C43.0857143,36.1955985 41.6378032,37.6435096 39.8517143,37.6435096 L5.14828571,37.6435096 C3.36219683,37.6435096 1.91428571,36.1955985 1.91428571,34.4095096 L1.91428571,11.3685096 Z M4.11428571,13.5685096 L4.11428571,34.4095096 C4.11428571,34.980572 4.57722328,35.4435096 5.14828571,35.4435096 L39.8517143,35.4435096 C40.4227767,35.4435096 40.8857143,34.980572 40.8857143,34.4095096 L40.8857143,13.5685096 L4.11428571,13.5685096 Z" id="Combined-Shape" fill="#AFAFAF" fill-rule="nonzero"/><path d="M17.1837838,34.5517914 L10.4243243,34.5517914 L10.4243243,21.5402008 L8.22432432,21.5402008 L8.22432432,35.3932914 C8.22432432,36.1435702 8.83254549,36.7517914 9.58282432,36.7517914 L18.0252838,36.7517914 C18.7755626,36.7517914 19.3837838,36.1435702 19.3837838,35.3932914 L19.3837838,21.5402008 L17.1837838,21.5402008 L17.1837838,34.5517914 Z" id="Path" fill="#AFAFAF" fill-rule="nonzero" transform="translate(13.804054, 29.145996) rotate(-180.000000) translate(-13.804054, -29.145996)"/><path d="M24.0892789,21.5402008 L36.3311292,21.5402008 C37.081408,21.5402008 37.6896292,22.148422 37.6896292,22.8987008 L37.6896292,30.6169949 C37.6896292,31.3672737 37.081408,31.9754949 36.3311292,31.9754949 L24.0892789,31.9754949 C23.3390001,31.9754949 22.7307789,31.3672737 22.7307789,30.6169949 L22.7307789,22.8987008 C22.7307789,22.148422 23.3390001,21.5402008 24.0892789,21.5402008 Z M24.9307789,23.7402008 L24.9307789,29.7754949 L35.4896292,29.7754949 L35.4896292,23.7402008 L24.9307789,23.7402008 Z" id="Rectangle-Copy-8" fill="#AFAFAF" fill-rule="nonzero" transform="translate(30.210204, 26.757848) rotate(-180.000000) translate(-30.210204, -26.757848)"/><path d="M19.765625,9.09083104 C22.7859322,9.09083104 25.234375,11.5392738 25.234375,14.559581 L25.234375,14.7649382 C25.234375,17.7852454 22.7859322,20.2336882 19.765625,20.2336882 L19.765625,20.2336882 L19.765625,9.09083104 Z" id="Rectangle-Copy-10" fill="#FFFFFF" transform="translate(22.500000, 14.662260) rotate(-270.000000) translate(-22.500000, -14.662260)"/><path d="M33.1370536,9.09083104 C36.1573608,9.09083104 38.6058036,11.5392738 38.6058036,14.559581 L38.6058036,14.7649382 C38.6058036,17.7852454 36.1573608,20.2336882 33.1370536,20.2336882 L33.1370536,20.2336882 L33.1370536,9.09083104 Z" id="Rectangle-Copy-10" fill="#FFFFFF" transform="translate(35.871429, 14.662260) rotate(-270.000000) translate(-35.871429, -14.662260)"/><path d="M6.39419643,9.09083104 C9.41450365,9.09083104 11.8629464,11.5392738 11.8629464,14.559581 L11.8629464,14.7649382 C11.8629464,17.7852454 9.41450365,20.2336882 6.39419643,20.2336882 L6.39419643,20.2336882 L6.39419643,9.09083104 Z" id="Rectangle-Copy-10" fill="#FFFFFF" transform="translate(9.128571, 14.662260) rotate(-270.000000) translate(-9.128571, -14.662260)"/><path d="M17.565625,9.09083104 C17.565625,7.87580459 18.5505986,6.89083104 19.765625,6.89083104 C24.0009587,6.89083104 27.434375,10.3242474 27.434375,14.559581 L27.434375,14.7649382 C27.434375,19.0002719 24.0009587,22.4336882 19.765625,22.4336882 C18.5505986,22.4336882 17.565625,21.4487146 17.565625,20.2336882 L17.565625,9.09083104 Z M19.765625,9.09083104 L19.765625,20.2336882 C22.7859322,20.2336882 25.234375,17.7852454 25.234375,14.7649382 L25.234375,14.559581 C25.234375,11.5392738 22.7859322,9.09083104 19.765625,9.09083104 Z" id="Rectangle-Copy-10" fill="#AFAFAF" fill-rule="nonzero" transform="translate(22.500000, 14.662260) rotate(-270.000000) translate(-22.500000, -14.662260)"/><path d="M30.9370536,9.09083104 C30.9370536,7.87580459 31.9220271,6.89083104 33.1370536,6.89083104 C37.3723872,6.89083104 40.8058036,10.3242474 40.8058036,14.559581 L40.8058036,14.7649382 C40.8058036,19.0002719 37.3723872,22.4336882 33.1370536,22.4336882 C31.9220271,22.4336882 30.9370536,21.4487146 30.9370536,20.2336882 L30.9370536,9.09083104 Z M33.1370536,9.09083104 L33.1370536,20.2336882 C36.1573608,20.2336882 38.6058036,17.7852454 38.6058036,14.7649382 L38.6058036,14.559581 C38.6058036,11.5392738 36.1573608,9.09083104 33.1370536,9.09083104 Z" id="Rectangle-Copy-10" fill="#AFAFAF" fill-rule="nonzero" transform="translate(35.871429, 14.662260) rotate(-270.000000) translate(-35.871429, -14.662260)"/><path d="M4.19419643,9.09083104 C4.19419643,7.87580459 5.17916998,6.89083104 6.39419643,6.89083104 C10.6295301,6.89083104 14.0629464,10.3242474 14.0629464,14.559581 L14.0629464,14.7649382 C14.0629464,19.0002719 10.6295301,22.4336882 6.39419643,22.4336882 C5.17916998,22.4336882 4.19419643,21.4487146 4.19419643,20.2336882 L4.19419643,9.09083104 Z M6.39419643,9.09083104 L6.39419643,20.2336882 C9.41450365,20.2336882 11.8629464,17.7852454 11.8629464,14.7649382 L11.8629464,14.559581 C11.8629464,11.5392738 9.41450365,9.09083104 6.39419643,9.09083104 Z" id="Rectangle-Copy-10" fill="#AFAFAF" fill-rule="nonzero" transform="translate(9.128571, 14.662260) rotate(-270.000000) translate(-9.128571, -14.662260)"/><path d="M41.7935981,12.4872596 L3.20640191,12.4872596 C2.74760332,12.4872596 2.29919652,12.3506382 1.91834363,12.0948117 C0.859308876,11.3834367 0.577474918,9.94823608 1.28884987,8.88920133 L5.70207302,2.31916859 C6.49483813,1.13896707 7.82323606,0.431009615 9.24497871,0.431009615 L35.7550213,0.431009615 C37.1767639,0.431009615 38.5051619,1.13896707 39.297927,2.31916859 L43.7111501,8.88920133 C44.4225251,9.94823608 44.1406911,11.3834367 43.0816564,12.0948117 C42.7008035,12.3506382 42.2523967,12.4872596 41.7935981,12.4872596 Z M41.7935981,10.2872596 C41.8154456,10.2872596 41.8367983,10.2807538 41.8549342,10.2685716 C41.9053644,10.2346966 41.9187851,10.1663537 41.8849101,10.1159235 L37.4716869,3.54589077 C37.0875636,2.97404055 36.4439069,2.63100962 35.7550213,2.63100962 L9.24497871,2.63100962 C8.5560931,2.63100962 7.91243637,2.97404055 7.52831307,3.54589077 L3.11508991,10.1159235 C3.08121491,10.1663537 3.09463558,10.2346966 3.1450658,10.2685716 C3.16320166,10.2807538 3.18455436,10.2872596 3.20640191,10.2872596 L41.7935981,10.2872596 Z" id="Path" fill="#AFAFAF" fill-rule="nonzero"/><path d="M41.7935981,10.2872596 L3.20640191,10.2872596 C3.18455436,10.2872596 3.16320166,10.2807538 3.1450658,10.2685716 C3.09463558,10.2346966 3.08121491,10.1663537 3.11508991,10.1159235 L7.52831307,3.54589077 C7.91243637,2.97404055 8.5560931,2.63100962 9.24497871,2.63100962 L35.7550213,2.63100962 C36.4439069,2.63100962 37.0875636,2.97404055 37.4716869,3.54589077 L41.8849101,10.1159235 C41.9187851,10.1663537 41.9053644,10.2346966 41.8549342,10.2685716 C41.8367983,10.2807538 41.8154456,10.2872596 41.7935981,10.2872596 Z" id="Path" fill="#FFFFFF"/><path d="M16.471875,0.874290764 L28.528125,-2.27509699 L28.528125,15.1933662 L16.471875,12.0439785 L16.471875,0.874290764 Z M18.671875,2.57342033 L18.671875,10.3448489 L26.328125,12.3448489 L26.328125,0.57342033 L18.671875,2.57342033 Z" id="Rectangle-Copy-16" fill="#AFAFAF" fill-rule="nonzero" transform="translate(22.500000, 6.459135) scale(-1, 1) rotate(-270.000000) translate(-22.500000, -6.459135)"/></g></svg>