<svg width="46" height="46" viewBox="0 0 46 46" version="1.1" xmlns="http://www.w3.org/2000/svg"><title>tab_stories inactive</title><g stroke="none" stroke-width="1" fill="none" fill-rule="evenodd"><g stroke="#AFAFAF" stroke-width="2.6"><path d="M39.05 11.094h3.252c.6 0 1.088.487 1.088 1.088v23.503c0 .902-.73 1.632-1.632 1.632H27.047c-.3 0-.544.244-.544.544v.654c0 .6-.487 1.088-1.088 1.088h-5.44c-.6 0-1.088-.487-1.088-1.088v-.654c0-.3-.244-.544-.544-.544H3.632c-.901 0-1.632-.73-1.632-1.632V12.182c0-.6.487-1.088 1.088-1.088h2.927" stroke-linejoin="round"/><path d="M37.732 32.033H27.074c-2.04 0-3.755 1.312-4.241 3.088h-.276c-.486-1.776-2.2-3.088-4.241-3.088H7.657c-.6 0-1.088-.487-1.088-1.088V8.088c0-.6.488-1.088 1.088-1.088h10.659c2.418 0 4.379 1.843 4.379 4.117 0-2.274 1.96-4.117 4.379-4.117h10.658c.601 0 1.088.487 1.088 1.088v22.857c0 .601-.487 1.088-1.088 1.088z" stroke-linecap="round" stroke-linejoin="round"/><path d="M22.695 10.535v22.471" stroke-linecap="round"/></g></g></svg>